<svg width="58" height="70" viewBox="0 0 58 70" fill="none" xmlns="http://www.w3.org/2000/svg">
  <path
    d="M9.24732 42.5867L9.17923 41.66H8.25001L3.79766 41.66C3.79722 41.66 3.79678 41.66 3.79634 41.66C3.08938 41.6578 2.41041 41.3834 1.90041 40.8938L1.20966 41.6132L1.90041 40.8938C1.39009 40.4038 1.08821 39.7361 1.05752 39.0293C1.02684 38.3225 1.2697 37.6311 1.73563 37.0988C2.18786 36.5821 2.81646 36.2539 3.49729 36.1773L3.7546 36.189L3.77729 36.19H3.80001H54.205H54.2281L54.2511 36.1889L54.503 36.1773C55.1838 36.254 55.8122 36.5822 56.2644 37.0988C56.7303 37.6311 56.9732 38.3225 56.9425 39.0293C56.9118 39.7361 56.6099 40.4038 56.0996 40.8938C55.5896 41.3834 54.9106 41.6578 54.2037 41.66C54.2032 41.66 54.2028 41.66 54.2024 41.66L49.75 41.66H48.8208L48.7527 42.5867L46.9527 67.0817L46.9526 67.083C46.9253 67.4608 46.7562 67.8143 46.479 68.0725C46.2019 68.3307 45.8374 68.4745 45.4586 68.475H12.5413C12.163 68.4745 11.7988 68.3311 11.5218 68.0736C11.2448 67.816 11.0753 67.4634 11.0473 67.0862C11.0473 67.0861 11.0473 67.0861 11.0473 67.086L9.24732 42.5867ZM36.2307 57.0517L36.2306 57.0509L35.8195 54.6543L37.5627 52.9564C37.5627 52.9564 37.5627 52.9564 37.5628 52.9563C38.0307 52.5006 38.3618 51.923 38.5185 51.2888C38.6752 50.6547 38.6514 49.9893 38.4496 49.368C38.2479 48.7468 37.8763 48.1943 37.3769 47.7733C36.8777 47.3524 36.2708 47.0796 35.6248 46.9855C35.6244 46.9855 35.6241 46.9854 35.6237 46.9854L33.2141 46.6317L32.137 44.453C31.8485 43.8674 31.4019 43.3742 30.8477 43.029C30.2935 42.6839 29.6539 42.5007 29.001 42.5H28.999C28.3534 42.5007 27.7126 42.6751 27.1523 43.024L27.681 43.8729L27.1523 43.024C26.5983 43.3691 26.1518 43.8621 25.8632 44.4475C25.8631 44.4477 25.8631 44.4478 25.863 44.448L24.786 46.6309L22.3765 46.9804L22.3763 46.9804C21.7299 47.0743 21.1226 47.3472 20.6232 47.7682L21.2678 48.5328L20.6232 47.7682C20.1238 48.1893 19.7522 48.7418 19.5504 49.363C19.3486 49.9843 19.3248 50.6497 19.4815 51.2838C19.6383 51.918 19.9693 52.4956 20.4373 52.9513C20.4373 52.9514 20.4373 52.9514 20.4373 52.9514L22.1805 54.6493L21.7694 57.0459L21.7693 57.0467C21.6595 57.6899 21.7316 58.351 21.9776 58.9553C22.2236 59.5597 22.6337 60.0832 23.1614 60.4668C23.6892 60.8505 24.3138 61.079 24.9645 61.1265C25.6153 61.174 26.2664 61.0386 26.8443 60.7357L26.8447 60.7355L28.9992 59.6048L31.154 60.7398L31.1557 60.7407C31.7337 61.0436 32.3847 61.179 33.0355 61.1315C33.6863 61.084 34.3108 60.8555 34.8386 60.4719C35.3664 60.0882 35.7764 59.5647 36.0224 58.9603C36.2684 58.356 36.3406 57.6949 36.2307 57.0517ZM34.2326 13.6326C32.8448 15.0204 30.9626 15.8 29 15.8C27.0374 15.8 25.1552 15.0204 23.7674 13.6326C22.3797 12.2448 21.6 10.3626 21.6 8.4C21.6 6.4374 22.3797 4.55518 23.7674 3.16741C25.1552 1.77964 27.0374 1 29 1C30.9626 1 32.8448 1.77964 34.2326 3.16741C35.6204 4.55518 36.4 6.4374 36.4 8.4C36.4 10.3626 35.6204 12.2448 34.2326 13.6326ZM17.294 27.94C18.2483 25.9682 19.6892 24.2618 21.4905 22.9879C23.6865 21.4347 26.3102 20.6006 29 20.6006C31.6898 20.6006 34.3135 21.4347 36.5095 22.9879C38.3108 24.2618 39.7517 25.9682 40.706 27.94H17.294Z"
    stroke="#666666" stroke-width="2" />
</svg>
  